<svg width="24" height="24" viewBox="0 0 24 24" fill="none" xmlns="http://www.w3.org/2000/svg">
<g clip-path="url(#clip0_36_210)">
<path d="M17.625 1.5C18.5078 1.5 19.3359 1.66406 20.1094 1.99219C20.8828 2.32031 21.5547 2.77344 22.125 3.35156C22.6953 3.92969 23.1484 4.60547 23.4844 5.37891C23.8203 6.15234 23.9883 6.98047 23.9883 7.86328C23.9883 8.31641 23.9414 8.76562 23.8477 9.21094C23.7539 9.65625 23.6133 10.0859 23.4258 10.5H18L15.75 8.15625L12 11.9062L6.75 6.65625L3 10.5H0.574219C0.386719 10.0859 0.246094 9.65625 0.152344 9.21094C0.0585938 8.76562 0.0117188 8.31641 0.0117188 7.86328C0.0117188 6.98047 0.175781 6.15234 0.503906 5.37891C0.832031 4.60547 1.28516 3.93359 1.86328 3.36328C2.44141 2.79297 3.11719 2.33984 3.89062 2.00391C4.66406 1.66797 5.49219 1.5 6.375 1.5C7.22656 1.5 8.03906 1.66016 8.8125 1.98047C9.58594 2.30078 10.2773 2.76172 10.8867 3.36328L12 4.48828L13.1133 3.36328C13.7148 2.76172 14.4023 2.30078 15.1758 1.98047C15.9492 1.66016 16.7656 1.5 17.625 1.5ZM16.5 12H22.4766L22.3125 12.1875C22.2578 12.25 22.1992 12.3164 22.1367 12.3867L12 22.5117L1.86328 12.3867C1.80078 12.3242 1.74219 12.2617 1.6875 12.1992C1.63281 12.1367 1.57812 12.0703 1.52344 12H4.5L6.75 9.84375L12 15.0938L15.75 11.3438L16.5 12Z" fill="#8f63df"/>
</g>
<defs>
<clipPath id="clip0_36_210">
<rect width="24" height="24" fill="white"/>
</clipPath>
</defs>
</svg>
