<svg width="24" height="24" viewBox="0 0 24 24" fill="none" xmlns="http://www.w3.org/2000/svg">
<path d="M2.18877 9.54706C2.18877 8.19418 3.2887 7.09425 4.64157 7.09425H4.7029C4.9865 5.69538 6.2244 4.64144 7.70759 4.64144C8.28246 4.64144 8.81901 4.79858 9.27508 5.07068C9.78481 4.08956 10.8158 3.41504 12 3.41504C13.1842 3.41504 14.2152 4.08956 14.7249 5.07068C15.181 4.79858 15.7175 4.64144 16.2924 4.64144C17.7756 4.64144 19.0135 5.69538 19.2971 7.09425H19.3584C20.7113 7.09425 21.8112 8.19418 21.8112 9.54706C21.8112 9.99546 21.6924 10.4132 21.4816 10.7735H2.51836C2.30757 10.4132 2.18877 9.99546 2.18877 9.54706ZM2.18877 13.05C2.18877 12.4713 2.66017 11.9999 3.23888 11.9999H20.7573C21.336 11.9999 21.8074 12.4713 21.8074 13.05C21.8074 15.7519 20.1058 18.0591 17.7181 18.9559L17.653 19.5116C17.5763 20.1248 17.0551 20.5847 16.4342 20.5847H7.56195C6.94492 20.5847 6.41986 20.1248 6.34321 19.5116L6.27423 18.9597C3.8904 18.0591 2.18877 15.7519 2.18877 13.05Z" fill="#8f63df"/>
</svg>
