<svg width="24" height="24" viewBox="0 0 24 24" fill="none" xmlns="http://www.w3.org/2000/svg">
<path d="M12.5136 2.65447C12.3719 2.52854 12.1889 2.45898 11.9994 2.45898C11.8098 2.45898 11.6269 2.52854 11.4852 2.65447C10.7479 3.30777 10.16 4.11209 9.76116 5.0128C9.36236 5.91351 9.1621 6.8895 9.17398 7.87447C9.17515 7.9777 9.20294 8.07887 9.25466 8.16821C9.30637 8.25755 9.38026 8.33204 9.46918 8.38447C10.2468 8.84433 10.9497 9.42016 11.5536 10.0921C11.6098 10.1545 11.6786 10.2045 11.7554 10.2387C11.8322 10.2728 11.9153 10.2905 11.9994 10.2905C12.0834 10.2905 12.1666 10.2728 12.2434 10.2387C12.3202 10.2045 12.3889 10.1545 12.4452 10.0921C13.0492 9.42101 13.7521 8.846 14.5296 8.38687C14.6183 8.33429 14.6919 8.25974 14.7434 8.17041C14.7949 8.08108 14.8225 7.97998 14.8236 7.87687C14.8358 6.89179 14.6358 5.91562 14.2372 5.0147C13.8386 4.11378 13.2508 3.30921 12.5136 2.65567M3.61918 14.6509C3.6098 14.5463 3.62121 14.4409 3.65274 14.3408C3.68427 14.2407 3.73531 14.1478 3.8029 14.0675C3.8705 13.9872 3.95332 13.921 4.0466 13.8729C4.13987 13.8247 4.24176 13.7955 4.34638 13.7869C5.94406 13.6532 7.54327 14.026 8.91708 14.8525C10.2909 15.679 11.3695 16.9172 12 18.3913C12.6301 16.9171 13.7085 15.6789 15.0821 14.8522C16.4557 14.0255 18.0548 13.6523 19.6524 13.7857C20.0916 13.8217 20.4204 14.2081 20.3796 14.6497C20.2065 16.5489 19.3298 18.3148 17.9215 19.6008C16.5132 20.8868 14.6751 21.5999 12.768 21.6001H12.21C12.1386 21.5995 12.0677 21.5898 11.9988 21.5713C11.9295 21.5899 11.8581 21.5996 11.7864 21.6001H11.2284C9.32149 21.5996 7.48366 20.8863 6.07561 19.6004C4.66757 18.3145 3.79101 16.5487 3.61798 14.6497M12 12.9913C11.3697 11.5169 10.2912 10.2785 8.91734 9.45182C7.54351 8.62511 5.9442 8.25208 4.34638 8.38567C4.24176 8.39428 4.13987 8.4235 4.0466 8.47166C3.95332 8.51982 3.8705 8.58596 3.8029 8.66628C3.73531 8.74659 3.68427 8.83949 3.65274 8.93962C3.62121 9.03974 3.6098 9.14512 3.61918 9.24967C3.71378 10.3025 4.0264 11.3242 4.53718 12.2497C4.58871 12.3428 4.66411 12.4206 4.75563 12.475C4.84715 12.5294 4.95151 12.5585 5.05798 12.5593C6.27145 12.5699 7.4697 12.8305 8.578 13.3247C9.68629 13.819 10.6808 14.5364 11.4996 15.4321C11.5624 15.5007 11.6403 15.5537 11.7271 15.5871C11.814 15.6204 11.9074 15.633 12 15.6241C12.0924 15.6329 12.1855 15.6201 12.2722 15.5868C12.3588 15.5535 12.4365 15.5005 12.4992 15.4321C13.3179 14.5364 14.3125 13.819 15.4208 13.3247C16.5291 12.8305 17.7273 12.5699 18.9408 12.5593C19.0474 12.5584 19.1518 12.5291 19.2433 12.4745C19.3349 12.4199 19.4102 12.3419 19.4616 12.2485C19.9722 11.3233 20.2848 10.3021 20.3796 9.24967C20.389 9.14512 20.3776 9.03974 20.346 8.93962C20.3145 8.83949 20.2635 8.74659 20.1959 8.66628C20.1283 8.58596 20.0454 8.51982 19.9522 8.47166C19.8589 8.4235 19.757 8.39428 19.6524 8.38567C18.0548 8.25234 16.4557 8.6255 15.0821 9.45219C13.7085 10.2789 12.6301 11.5171 12 12.9913Z" fill="#f67f72"/>
</svg>
