<svg width="24" height="24" viewBox="0 0 24 24" fill="none" xmlns="http://www.w3.org/2000/svg">
<path d="M9.488 20C9.25134 20 9.05634 19.9227 8.903 19.768C8.74967 19.6127 8.673 19.4207 8.673 19.192V15.327H4.808C4.57934 15.327 4.38734 15.2497 4.232 15.095C4.07667 14.9403 3.99934 14.7483 4 14.519V9.507C4 9.27034 4.07734 9.07534 4.232 8.922C4.38667 8.76867 4.57867 8.692 4.808 8.692H8.673V4.808C8.673 4.57934 8.75034 4.38734 8.905 4.232C9.05967 4.07667 9.25167 3.99934 9.481 4H14.493C14.7297 4 14.9247 4.07734 15.078 4.232C15.2313 4.38734 15.308 4.57934 15.308 4.808V8.692H19.192C19.4213 8.692 19.6133 8.76967 19.768 8.925C19.9227 9.08034 20 9.272 20 9.5V14.512C20 14.7487 19.9227 14.9437 19.768 15.097C19.6127 15.2503 19.4207 15.327 19.192 15.327H15.308V19.192C15.308 19.4213 15.2303 19.6133 15.075 19.768C14.9197 19.9227 14.728 20 14.5 20H9.488Z" fill="#f67f72"/>
</svg>
