<svg width="24" height="24" viewBox="0 0 24 24" fill="none" xmlns="http://www.w3.org/2000/svg">
<path d="M12.5135 2.65447C12.3719 2.52854 12.1889 2.45898 11.9993 2.45898C11.8098 2.45898 11.6268 2.52854 11.4851 2.65447C10.7479 3.30777 10.1599 4.11209 9.76113 5.0128C9.36233 5.91351 9.16207 6.8895 9.17395 7.87447C9.17512 7.9777 9.20291 8.07887 9.25462 8.16821C9.30634 8.25755 9.38023 8.33204 9.46915 8.38447C10.2468 8.84433 10.9497 9.42016 11.5535 10.0921C11.6098 10.1545 11.6786 10.2045 11.7554 10.2387C11.8322 10.2728 11.9153 10.2905 11.9993 10.2905C12.0834 10.2905 12.1665 10.2728 12.2433 10.2387C12.3201 10.2045 12.3889 10.1545 12.4451 10.0921C13.0492 9.42101 13.7521 8.846 14.5295 8.38687C14.6182 8.33429 14.6919 8.25974 14.7434 8.17041C14.7949 8.08108 14.8225 7.97998 14.8235 7.87687C14.8357 6.89179 14.6358 5.91562 14.2372 5.0147C13.8386 4.11378 13.2507 3.30921 12.5135 2.65567M3.61915 14.6509C3.60977 14.5463 3.62118 14.4409 3.65271 14.3408C3.68424 14.2407 3.73527 14.1478 3.80287 14.0675C3.87047 13.9872 3.95329 13.921 4.04657 13.8729C4.13984 13.8247 4.24173 13.7955 4.34635 13.7869C5.94403 13.6532 7.54324 14.026 8.91705 14.8525C10.2909 15.679 11.3695 16.9172 11.9999 18.3913C12.6301 16.9171 13.7085 15.6789 15.0821 14.8522C16.4557 14.0255 18.0547 13.6523 19.6523 13.7857C20.0915 13.8217 20.4203 14.2081 20.3795 14.6497C20.2065 16.5489 19.3298 18.3148 17.9215 19.6008C16.5132 20.8868 14.675 21.5999 12.7679 21.6001H12.2099C12.1386 21.5995 12.0676 21.5898 11.9987 21.5713C11.9295 21.5899 11.8581 21.5996 11.7863 21.6001H11.2283C9.32146 21.5996 7.48363 20.8863 6.07558 19.6004C4.66754 18.3145 3.79097 16.5487 3.61795 14.6497M11.9999 12.9913C11.3697 11.5169 10.2911 10.2785 8.91731 9.45182C7.54348 8.62511 5.94417 8.25208 4.34635 8.38567C4.24173 8.39428 4.13984 8.4235 4.04657 8.47166C3.95329 8.51982 3.87047 8.58596 3.80287 8.66628C3.73527 8.74659 3.68424 8.83949 3.65271 8.93962C3.62118 9.03974 3.60977 9.14512 3.61915 9.24967C3.71375 10.3025 4.02637 11.3242 4.53715 12.2497C4.58868 12.3428 4.66408 12.4206 4.7556 12.475C4.84712 12.5294 4.95148 12.5585 5.05795 12.5593C6.27142 12.5699 7.46967 12.8305 8.57797 13.3247C9.68626 13.819 10.6808 14.5364 11.4995 15.4321C11.5624 15.5007 11.6403 15.5537 11.7271 15.5871C11.814 15.6204 11.9074 15.633 11.9999 15.6241C12.0923 15.6329 12.1855 15.6201 12.2721 15.5868C12.3587 15.5535 12.4365 15.5005 12.4991 15.4321C13.3179 14.5364 14.3124 13.819 15.4207 13.3247C16.529 12.8305 17.7273 12.5699 18.9407 12.5593C19.0473 12.5584 19.1518 12.5291 19.2433 12.4745C19.3348 12.4199 19.4102 12.3419 19.4615 12.2485C19.9722 11.3233 20.2848 10.3021 20.3795 9.24967C20.3889 9.14512 20.3775 9.03974 20.346 8.93962C20.3145 8.83949 20.2634 8.74659 20.1958 8.66628C20.1282 8.58596 20.0454 8.51982 19.9521 8.47166C19.8589 8.4235 19.757 8.39428 19.6523 8.38567C18.0547 8.25234 16.4557 8.6255 15.0821 9.45219C13.7085 10.2789 12.6301 11.5171 11.9999 12.9913Z" fill="#f67f72"/>
</svg>
