<svg width="24" height="24" viewBox="0 0 24 24" fill="none" xmlns="http://www.w3.org/2000/svg">
<path d="M16.35 19.1747L19.9 15.6247C20.1 15.4247 20.3333 15.3287 20.6 15.3367C20.8667 15.3447 21.1 15.4491 21.3 15.6497C21.4833 15.8497 21.575 16.0831 21.575 16.3497C21.575 16.6164 21.4833 16.8497 21.3 17.0497L17.075 21.2997C16.875 21.4997 16.6417 21.5997 16.375 21.5997C16.1083 21.5997 15.875 21.4997 15.675 21.2997L13.525 19.1497C13.3417 18.9664 13.25 18.7331 13.25 18.4497C13.25 18.1664 13.3417 17.9331 13.525 17.7497C13.7083 17.5664 13.9417 17.4747 14.225 17.4747C14.5083 17.4747 14.7417 17.5664 14.925 17.7497L16.35 19.1747ZM12.1 16.3247C11.6667 16.7581 11.375 17.2957 11.225 17.9377C11.075 18.5797 11.1833 19.2171 11.55 19.8497C11.6333 19.9831 11.7167 20.1081 11.8 20.2247C11.8833 20.3414 11.9833 20.4581 12.1 20.5747L12.525 20.9747C11.475 21.0414 10.4667 20.9164 9.5 20.5997C8.53333 20.2831 7.65 19.7914 6.85 19.1247C5.96667 18.3747 5.271 17.4747 4.763 16.4247C4.255 15.3747 4.00067 14.2331 4 12.9997C4 11.2664 4.47933 9.59973 5.438 7.99973C6.39667 6.39973 7.71733 4.95806 9.4 3.67473C9.93333 3.27473 10.5 3.23306 11.1 3.54973C11.7 3.86639 12 4.37473 12 5.07473C12 5.67473 12.1917 6.19573 12.575 6.63773C12.9583 7.07973 13.4417 7.30039 14.025 7.29973C14.325 7.29973 14.6083 7.23306 14.875 7.09973C15.1417 6.96639 15.3667 6.78306 15.55 6.54973C15.6833 6.38306 15.85 6.28306 16.05 6.24973C16.25 6.21639 16.4333 6.25806 16.6 6.37473C17.5167 7.00806 18.2627 7.81239 18.838 8.78773C19.4133 9.76306 19.7757 10.8171 19.925 11.9497C19.9583 12.1831 19.9333 12.4124 19.85 12.6377C19.7667 12.8631 19.6417 13.0587 19.475 13.2247L16.35 16.3497L16.325 16.3247C15.625 15.6247 14.8793 15.3164 14.088 15.3997C13.2967 15.4831 12.634 15.7914 12.1 16.3247Z" fill="#fbc442"/>
</svg>
