<svg width="24" height="24" viewBox="0 0 24 24" fill="none" xmlns="http://www.w3.org/2000/svg">
<path d="M11.0478 2.97176C11.6635 2.76299 12.3313 2.76364 12.9472 2.97176L18.6259 4.89461H18.625C19.0865 5.04811 19.4935 5.33327 19.7949 5.71493C20.0586 6.04905 20.2324 6.44512 20.2998 6.86336L20.3222 7.045V7.04696C20.6192 10.7669 20.1222 13.7247 18.749 16.0567C17.3708 18.3981 15.1782 19.9955 12.3154 21.1231C12.1111 21.2035 11.8839 21.2035 11.6797 21.1231C8.81949 19.9955 6.62827 18.398 5.25095 16.0567C3.87941 13.7247 3.38182 10.7679 3.67966 7.04598V7.04403C3.72165 6.55938 3.90382 6.09689 4.20505 5.71493C4.50606 5.33335 4.91299 5.04747 5.374 4.89364L11.0478 2.97176ZM12.3906 4.61727C12.136 4.53118 11.86 4.53125 11.6054 4.61727L5.93064 6.53817L5.92771 6.53915C5.78744 6.58479 5.66348 6.67108 5.57126 6.78622C5.47996 6.90033 5.42266 7.0383 5.40818 7.18368C5.12835 10.6931 5.61679 13.2567 6.74704 15.1759C7.8253 17.009 9.54863 18.3593 11.998 19.378C14.4498 18.3593 16.1748 17.0089 17.2529 15.1759C18.3831 13.2559 18.8715 10.6937 18.5918 7.18465C18.5688 6.90065 18.3698 6.64044 18.0703 6.53915L12.3906 4.61727ZM14.7226 8.96493C14.8389 8.96295 14.9546 8.98388 15.0625 9.02743C15.1705 9.07107 15.2691 9.13644 15.3515 9.21883C15.4338 9.30114 15.4993 9.39905 15.5429 9.50692C15.5866 9.61493 15.6075 9.73127 15.6054 9.84774C15.6034 9.96428 15.5777 10.0801 15.5302 10.1866C15.484 10.2903 15.4162 10.3829 15.334 10.461L15.3349 10.462L11.372 14.4249L9.08396 12.1358L9.07712 12.1309L9.0781 12.13C8.92493 11.9654 8.84073 11.7473 8.8447 11.5225C8.84889 11.2981 8.93994 11.0837 9.09861 10.9249C9.25765 10.7658 9.47333 10.6749 9.69821 10.671C9.9228 10.6672 10.1403 10.7503 10.3047 10.9034L11.3711 11.9698L14.1084 9.23446C14.1866 9.15223 14.2801 9.08539 14.3838 9.03915C14.4902 8.99176 14.6062 8.96698 14.7226 8.96493Z" fill="black"/>
</svg>
