<svg width="24" height="24" viewBox="0 0 24 24" fill="none" xmlns="http://www.w3.org/2000/svg">
<path d="M9.72403 6.7303C10.7369 4.91401 11.2429 4.00586 12 4.00586C12.7571 4.00586 13.2631 4.91401 14.276 6.7303L14.5382 7.20036C14.826 7.71679 14.9699 7.97501 15.1937 8.14528C15.4175 8.31556 15.6973 8.37872 16.2569 8.50503L16.7654 8.62014C18.732 9.06542 19.7145 9.28766 19.9487 10.0399C20.1821 10.7914 19.5122 11.5756 18.1716 13.1433L17.8246 13.5486C17.4441 13.9939 17.253 14.2169 17.1675 14.4919C17.0819 14.7677 17.1107 15.0651 17.1683 15.6591L17.221 16.2003C17.4233 18.2924 17.5248 19.338 16.9125 19.8025C16.3001 20.267 15.3792 19.8433 13.5389 18.9959L13.0616 18.7768C12.5388 18.5354 12.2774 18.4155 12 18.4155C11.7226 18.4155 11.4612 18.5354 10.9384 18.7768L10.4619 18.9959C8.62083 19.8433 7.69989 20.267 7.08833 19.8033C6.47517 19.338 6.57669 18.2924 6.77895 16.2003L6.83171 15.6599C6.88927 15.0651 6.91805 14.7677 6.83171 14.4927C6.74697 14.2169 6.55591 13.9939 6.17538 13.5494L5.82843 13.1433C4.4878 11.5764 3.81788 10.7922 4.05131 10.0399C4.28474 9.28766 5.26883 9.06462 7.23542 8.62014L7.74386 8.50503C8.30265 8.37872 8.58165 8.31556 8.80629 8.14528C9.03093 7.97501 9.17403 7.71679 9.46182 7.20036L9.72403 6.7303Z" stroke="black" stroke-width="2"/>
</svg>
