<svg width="24" height="24" viewBox="0 0 24 24" fill="none" xmlns="http://www.w3.org/2000/svg">
<path d="M2.992 12.0162C2.992 10.3842 3.4 8.87219 4.208 7.48819C5.016 6.10419 6.112 5.00819 7.496 4.20019C8.88 3.39219 10.384 2.99219 12.008 2.99219C13.224 2.99219 14.392 3.23219 15.504 3.70419C16.616 4.17619 17.568 4.82419 18.376 5.62419C19.184 6.42419 19.824 7.38419 20.296 8.50419C20.768 9.62419 21.008 10.7842 21.008 12.0162C21.008 13.2322 20.768 14.4002 20.296 15.5122C19.824 16.6242 19.176 17.5842 18.376 18.3842C17.576 19.1842 16.616 19.8242 15.504 20.2962C14.392 20.7682 13.232 21.0082 12.008 21.0082C10.784 21.0082 9.608 20.7682 8.496 20.2962C7.384 19.8242 6.424 19.1762 5.616 18.3762C4.808 17.5762 4.176 16.6162 3.696 15.5122C3.216 14.4082 2.992 13.2402 2.992 12.0162ZM4.976 12.0162C4.976 13.9122 5.664 15.5602 7.048 16.9602C8.43201 18.3442 10.08 19.0322 12.008 19.0322C13.272 19.0322 14.448 18.7202 15.52 18.0882C16.592 17.4562 17.456 16.6082 18.088 15.5282C18.72 14.4482 19.04 13.2802 19.04 12.0162C19.04 10.7522 18.72 9.57619 18.088 8.49619C17.456 7.41619 16.6 6.56019 15.52 5.92819C14.44 5.29619 13.272 4.98419 12.008 4.98419C10.744 4.98419 9.568 5.29619 8.496 5.92819C7.424 6.56019 6.56 7.41619 5.92 8.49619C5.28 9.57619 4.976 10.7522 4.976 12.0162ZM11.312 12.0162V6.68819C11.312 6.50419 11.376 6.34419 11.504 6.21619C11.632 6.08819 11.792 6.02419 11.976 6.02419C12.16 6.02419 12.32 6.08819 12.448 6.21619C12.576 6.34419 12.64 6.50419 12.64 6.68819V10.8562L14.864 9.60019C15.024 9.50419 15.192 9.48019 15.368 9.52819C15.632 9.60019 15.68 9.68819 15.768 9.85619C15.864 10.0162 15.88 10.1842 15.832 10.3602C15.784 10.5362 15.68 10.6802 15.52 10.7682L12.416 12.5042C12.2953 12.6189 12.1346 12.6821 11.968 12.6802C11.8808 12.6816 11.7942 12.6654 11.7134 12.6324C11.6326 12.5995 11.5594 12.5505 11.4981 12.4884C11.4368 12.4264 11.3887 12.3525 11.3567 12.2714C11.3247 12.1902 11.3095 12.1034 11.312 12.0162Z" fill="black"/>
</svg>
