<svg width="276" height="67" viewBox="0 0 276 67" fill="none" xmlns="http://www.w3.org/2000/svg">
<path d="M0 47.4081C7.38312 45.4003 15.1032 45.0915 22.715 44.6873C28.0778 44.4597 33.4231 44.3941 38.793 44.4321C74.2383 46.0602 106.224 65.8807 142.351 66.3548C170.345 66.0548 200.619 48.028 205.851 18.7971C206.302 15.1498 206.15 11.4108 205.341 7.81163C204.683 4.50981 202.47 0.331425 198.266 0.0183986C194.303 -0.231551 191.12 2.09049 188.671 4.50123C183.767 9.53575 181.105 16.2991 180.393 23.1367L182.29 23.2346C182.263 16.481 178.677 9.82069 172.703 6.45086C169.826 4.78699 165.42 4.32239 162.722 7.04565C160.104 9.66498 159.514 13.185 159.278 16.4754C157.091 38.009 178.717 52.1721 197.551 54.5313C217.012 57.6405 237.039 54.266 255.186 47.1211C262.309 44.2954 269.171 40.8314 275.665 36.7887C269.102 40.7176 262.194 44.0611 255.049 46.7668C236.85 53.6081 216.896 56.6641 197.749 53.3796C179.101 50.7669 158.733 36.951 160.971 16.5814C161.189 13.4825 161.879 10.3046 163.932 8.3214C165.958 6.30362 169.267 6.58011 171.839 8.04477C177.085 11.0124 180.417 17.1752 180.388 23.2346C180.388 24.372 182.168 24.4639 182.285 23.3326C182.973 16.8759 185.555 10.479 190.063 5.88648C192.281 3.66471 195.217 1.76037 198.085 1.99371C200.981 2.18074 202.763 5.17867 203.394 8.24612C204.147 11.6179 204.29 15.1175 203.866 18.5537C199.055 46.187 169.554 64.2516 142.351 64.6248C106.897 64.448 74.5762 44.9715 38.793 43.8095C33.4146 43.8491 28.0624 43.9957 22.6958 44.3078C15.0803 44.832 7.35365 45.2699 0 47.4081Z" fill="#AB9BBF"/>
</svg>
