<svg width="32" height="32" viewBox="0 0 32 32" fill="none" xmlns="http://www.w3.org/2000/svg">
<path d="M13.9052 20.3457L13.8984 20.3297C13.7604 20.2971 13.6233 20.2613 13.487 20.2223L13.4767 20.2189C12.173 19.8441 10.9691 19.184 9.95211 18.2863C8.83369 17.2997 7.97361 16.0545 7.44686 14.6592C6.9201 13.2639 6.74267 11.761 6.93002 10.2814C7.11738 8.80182 7.66383 7.39054 8.52175 6.17061C9.37966 4.95067 10.523 3.95913 11.852 3.28243C13.181 2.60574 14.6554 2.26443 16.1466 2.28828C17.6378 2.31213 19.1006 2.7004 20.4073 3.41925C21.714 4.1381 22.825 5.16569 23.6435 6.41243C24.462 7.65917 24.963 9.08721 25.103 10.572C25.1475 11.044 24.7601 11.4292 24.2858 11.4292C23.8127 11.4292 23.4344 11.044 23.3795 10.5732C23.2285 9.27407 22.7371 8.03788 21.9551 6.98957C21.1731 5.94126 20.1282 5.11799 18.926 4.60297C17.7238 4.08795 16.407 3.89944 15.1086 4.05651C13.8102 4.21357 12.5763 4.71063 11.5316 5.49745C10.4869 6.28427 9.66843 7.33295 9.15895 8.53749C8.64948 9.74202 8.46703 11.0597 8.63007 12.3574C8.79311 13.655 9.29585 14.8866 10.0875 15.9277C10.8791 16.9688 11.9315 17.7824 13.1384 18.2863L13.1841 18.3057C13.4127 18.3994 13.6473 18.4821 13.8881 18.5537C14.0904 18.0649 14.4559 17.6614 14.9225 17.412C15.389 17.1626 15.9275 17.0828 16.4464 17.186C16.9652 17.2893 17.4321 17.5694 17.7675 17.9784C18.103 18.3874 18.2861 18.9002 18.2858 19.4292C18.2863 19.9545 18.1059 20.4639 17.7748 20.8718C17.4438 21.2797 16.9824 21.5611 16.4682 21.6686C15.9541 21.7762 15.4185 21.7034 14.9517 21.4625C14.4849 21.2215 14.1154 20.8272 13.9052 20.3457ZM12.7784 21.7994C10.7482 21.168 8.94798 19.9544 7.60125 18.3092C6.76663 18.4069 5.99699 18.8078 5.43846 19.4356C4.87993 20.0635 4.57143 20.8746 4.57153 21.7149V22.532C4.57153 26.7812 9.38296 29.7149 16.0001 29.7149C22.6172 29.7149 27.4287 26.62 27.4287 22.532V21.7149C27.4287 20.8056 27.0675 19.9335 26.4245 19.2905C25.7815 18.6475 24.9094 18.2863 24.0001 18.2863H19.8344C20.104 19.1892 20.0462 20.1583 19.6711 21.0227C19.2961 21.8871 18.6279 22.5914 17.7844 23.0114C16.9409 23.4314 15.9762 23.5401 15.0604 23.3184C14.1445 23.0967 13.3364 22.5587 12.7784 21.7994ZM21.7144 11.4292C21.7144 9.70116 20.9487 8.15259 19.7361 7.10459C19.1277 6.57975 18.4155 6.18912 17.6458 5.95819C16.8762 5.72726 16.0666 5.66124 15.2697 5.76442C14.4729 5.86761 13.7068 6.13768 13.0214 6.55702C12.336 6.97635 11.7467 7.53552 11.2921 8.19802C10.8374 8.86051 10.5276 9.61145 10.3828 10.4018C10.238 11.1922 10.2616 12.0041 10.4519 12.7848C10.6422 13.5654 10.995 14.2972 11.4872 14.9322C11.9795 15.5673 12.6001 16.0914 13.3087 16.4703C14.045 15.8005 15.0047 15.4292 16.0001 15.4292C16.9959 15.4289 17.956 15.8002 18.6927 16.4703C19.6057 15.9825 20.3691 15.2559 20.9013 14.368C21.4335 13.4801 21.7146 12.4643 21.7144 11.4292Z" fill="black"/>
</svg>
