<svg width="32" height="32" viewBox="0 0 32 32" fill="none" xmlns="http://www.w3.org/2000/svg">
<path d="M14.7481 3.50359C15.558 3.22888 16.436 3.22771 17.2461 3.50164L25.3692 6.25359C25.9661 6.45213 26.4921 6.82132 26.8819 7.31512C27.2716 7.80895 27.5081 8.40616 27.5625 9.03289C27.9842 14.3136 27.2752 18.4674 25.3584 21.7223C23.4369 24.9866 20.3739 27.2304 16.3262 28.8249C16.1145 28.9083 15.8787 28.9083 15.667 28.8249C11.6226 27.2304 8.56006 24.9869 6.63969 21.7223C4.72534 18.4674 4.01563 14.315 4.43851 9.03191C4.4928 8.40529 4.7287 7.80799 5.1182 7.31414C5.50777 6.82027 6.0341 6.45137 6.6309 6.25262L14.7481 3.50359ZM20.3409 11.6432C20.2066 11.6456 20.0739 11.6745 19.9512 11.7292C19.8287 11.7838 19.7185 11.8625 19.627 11.9606L15 16.5876L13.0401 14.6276C12.8506 14.451 12.5998 14.3546 12.3409 14.3591C12.0819 14.3636 11.8346 14.4689 11.6514 14.652C11.4682 14.8352 11.363 15.0824 11.3584 15.3415C11.3539 15.6006 11.4504 15.8511 11.627 16.0407L15 19.4147L21.0401 13.3747C21.1383 13.2831 21.2169 13.1722 21.2715 13.0495C21.3262 12.9268 21.3561 12.7941 21.3584 12.6598C21.3607 12.5257 21.3354 12.3926 21.2852 12.2682C21.2349 12.1437 21.1604 12.0302 21.0655 11.9352C20.9705 11.8403 20.8569 11.7658 20.7325 11.7155C20.6081 11.6653 20.475 11.6409 20.3409 11.6432Z" fill="#6bbda7"/>
</svg>
