<svg width="32" height="32" viewBox="0 0 32 32" fill="none" xmlns="http://www.w3.org/2000/svg">
<path d="M25.9889 11.6019L25.7128 12.237C25.6697 12.3405 25.5969 12.4288 25.5037 12.491C25.4104 12.5531 25.3008 12.5863 25.1888 12.5863C25.0767 12.5863 24.9671 12.5531 24.8739 12.491C24.7806 12.4288 24.7078 12.3405 24.6647 12.237L24.3886 11.6019C23.9033 10.4782 23.0144 9.57732 21.8973 9.07691L21.0456 8.69648C20.9422 8.64895 20.8547 8.57278 20.7933 8.47701C20.732 8.38124 20.6994 8.26988 20.6994 8.15614C20.6994 8.04239 20.732 7.93104 20.7933 7.83526C20.8547 7.73949 20.9422 7.66333 21.0456 7.61579L21.8502 7.25781C22.9953 6.74314 23.8994 5.8089 24.3763 4.64755L24.6602 3.96188C24.7019 3.85567 24.7746 3.76448 24.8689 3.70021C24.9632 3.63594 25.0747 3.60156 25.1888 3.60156C25.3029 3.60156 25.4143 3.63594 25.5086 3.70021C25.6029 3.76448 25.6756 3.85567 25.7173 3.96188L26.0012 4.64643C26.4776 5.808 27.3813 6.74264 28.5262 7.25781L29.332 7.61692C29.435 7.66459 29.5222 7.74074 29.5833 7.83639C29.6445 7.93204 29.677 8.04318 29.677 8.1567C29.677 8.27021 29.6445 8.38136 29.5833 8.477C29.5222 8.57265 29.435 8.64881 29.332 8.69648L28.4791 9.07579C27.3623 9.5767 26.4738 10.478 25.9889 11.6019ZM25.1888 14.8249C25.9504 14.8255 26.7067 14.6968 27.4253 14.4444C27.4306 14.5716 27.4332 14.6984 27.4332 14.8249C27.4332 17.2059 26.4873 19.4894 24.8037 21.173C23.12 22.8567 20.8365 23.8025 18.4555 23.8025V27.7303C12.8445 25.4858 4.98901 22.1192 4.98901 14.8249C4.98901 12.4438 5.93487 10.1603 7.61851 8.47669C9.30215 6.79305 11.5857 5.84719 13.9667 5.84719H18.4555C18.5827 5.84719 18.7095 5.84981 18.8359 5.85505C18.4783 6.87056 18.3694 7.95703 18.5184 9.02331C18.6674 10.0896 19.0699 11.1046 19.6922 11.9832C20.3144 12.8618 21.1383 13.5784 22.0947 14.0728C23.0511 14.5673 24.1121 14.8252 25.1888 14.8249Z" fill="#fbc442"/>
</svg>
