<svg width="290" height="110" viewBox="0 0 290 110" fill="none" xmlns="http://www.w3.org/2000/svg">
<path d="M209.493 53.6734L211.535 63.5716C206.277 69.6352 197.617 58.9947 209.493 53.6734ZM224.969 66.266C224.969 66.266 223.851 66.1053 223.823 66.0938C222.855 66.0006 222.589 63.9489 222.589 63.9489C222.589 63.9296 220.533 51.7253 220.533 51.7253C220.533 51.7407 220.046 49.3536 220.046 49.3536C219.546 46.8148 219.026 44.1847 218.058 41.768C214.899 34.442 205.831 33.2369 199.152 35.2152C198.082 35.5404 197.066 36.0906 197.066 36.0906V40.6316C199.813 39.4393 202.492 39.3673 204.66 40.3976C207.48 41.7635 208.275 45.2388 208.421 46.6772C208.421 46.7023 208.669 48.2866 208.669 48.2866C205.412 48.777 201.364 49.5817 198.38 51.6867C195.045 54.0642 193.29 57.8519 193.679 61.8099C193.801 66.0192 197.057 69.3891 200.202 70.5557C204.383 72.034 210.121 71.7949 213.533 67.8664C213.553 67.8471 213.952 67.4024 213.952 67.4024L214.917 68.3427C217.407 70.9535 220.134 70.8712 223.294 70.7787L224.971 70.7446L224.969 66.266ZM143.66 64.0723C143.66 64.0723 140.163 66.6382 134.803 65.8887C129.89 65.201 128.372 57.5061 128.372 57.5061L147.325 51.3821C147.325 51.3821 146.968 43.101 142.394 38.6063C138.209 34.4928 131.858 33.2684 126.016 35.6773C122.539 37.0239 119.326 40.6406 117.835 44.8846C114.921 52.9651 116.654 62.0059 122.148 67.3773C127.217 72.2326 135.104 72.1413 140.796 70.4355C140.775 70.4406 143.666 69.2014 143.666 69.2014L143.66 64.0723ZM128.113 52.3423C127.812 48.8657 128.241 45.1488 129.079 43.4429C129.926 41.7095 130.885 41.0423 132.061 40.8996C137.086 40.2903 137.643 49.5078 137.643 49.5078L128.113 52.3635C128.119 52.37 128.113 52.3372 128.113 52.3423ZM285.306 64.0723C285.306 64.0723 281.809 66.6382 276.451 65.8887C271.538 65.201 270.02 57.5061 270.02 57.5061L288.972 51.3821C288.972 51.3821 288.616 43.101 284.041 38.6063C279.855 34.4928 273.505 33.2684 267.662 35.6773C264.188 37.0239 260.973 40.6406 259.482 44.8846C256.569 52.9651 258.301 62.0059 263.796 67.3773C268.866 72.2326 276.752 72.1413 282.443 70.4355C282.422 70.4406 285.311 69.2014 285.311 69.2014L285.306 64.0723ZM269.759 52.3423C269.46 48.8657 269.888 45.1488 270.726 43.4429C271.574 41.7095 272.532 41.0423 273.708 40.8996C278.734 40.2903 279.29 49.5078 279.29 49.5078L269.759 52.3635C269.765 52.37 269.759 52.3372 269.759 52.3423ZM65.3754 53.7152L67.4167 63.6134C62.1591 69.6757 53.4988 59.0352 65.3754 53.7152ZM80.8513 66.3071C80.8513 66.3071 79.7335 66.1465 79.7046 66.1349C78.7366 66.0417 78.4712 63.9901 78.4712 63.9901C78.4712 63.9708 76.4144 51.7671 76.4144 51.7671C76.4144 51.7812 75.9285 49.3947 75.9285 49.3947C75.4278 46.8559 74.9078 44.2258 73.9405 41.8091C70.7808 34.4831 61.713 33.278 55.035 35.2564C53.9641 35.5816 52.9493 36.1311 52.9493 36.1311V40.6727C55.6957 39.4804 58.3746 39.4085 60.5426 40.4388C63.3623 41.8046 64.1574 45.2792 64.3033 46.7183C64.3033 46.7434 64.5507 48.3271 64.5507 48.3271C61.294 48.8182 57.2466 49.6222 54.2617 51.7279C50.9272 54.1047 49.1725 57.893 49.5614 61.851C49.6829 66.061 52.9396 69.4302 56.0852 70.5968C60.2656 72.0751 66.0033 71.8366 69.4156 67.9082C69.4355 67.8889 69.8334 67.4435 69.8334 67.4435L70.7994 68.3838C73.2888 70.9946 76.0159 70.913 79.1763 70.8198L80.8532 70.7858L80.8513 66.3071ZM239.167 39.8719L239.177 70.7594L250.187 70.7543V50.9855L250.231 50.247C250.329 48.6189 250.421 46.9369 251.185 45.5164C252.831 42.3323 256.648 42.3998 259.316 42.7449L261.252 34.4471C261.252 34.4471 260.036 33.9362 258.257 33.9317C253.329 33.9317 250.641 39.6495 250.61 39.7131L250.143 40.8122V40.1103L250.14 33.897L239.167 39.8719ZM115.001 33.967L103.847 39.9445V70.742L115.024 70.7376L115.001 33.967ZM115.299 24.1845C114.875 22.9826 113.979 21.8289 112.853 21.0351C110.31 19.5002 106.657 19.9399 104.698 22.0223C103.218 23.4061 102.509 25.7245 102.89 27.94C103.19 30.0116 104.885 31.6744 106.324 32.3402C108.695 33.2896 112.22 33.0961 114.37 30.4409C115.588 28.9813 115.981 26.3467 115.299 24.1787V24.1845ZM237.422 33.9259L226.268 39.9034V70.7016L237.445 70.6971L237.422 33.9259ZM237.72 24.1434C237.296 22.9414 236.4 21.7877 235.274 20.9939C232.731 19.4591 229.078 19.8987 227.119 21.9812C225.639 23.3657 224.93 25.6834 225.311 27.8989C225.611 29.9705 227.306 31.6332 228.745 32.2991C231.116 33.2484 234.64 33.055 236.791 30.3998C238.009 28.9401 238.401 26.3056 237.72 24.1376V24.144L237.72 24.1434ZM172.773 64.645C169.842 63.1204 167.391 60.8818 167.077 54.4576C166.712 46.9761 168.199 41.7191 172.194 40.1952C175.225 39.0389 179.387 41.5899 179.387 41.5899L179.428 35.5424C179.428 35.5424 173.722 32.7767 167.318 34.8225C161.536 36.6704 157.809 41.1773 156.488 48.5476C155.525 53.917 156.29 59.847 158.948 64.5094C162.011 69.5555 167.817 72.1818 174.441 71.2826C176.242 71.0384 179.997 69.8814 179.997 69.8814L179.944 64.2934C179.944 64.2934 175.794 66.2172 172.773 64.645ZM181.306 70.7086H192.292V22.9312L181.306 28.8135V70.7086ZM82.131 39.8725L82.1406 70.76L93.1507 70.7549V50.9861L93.1951 50.2476C93.2921 48.6196 93.384 46.9375 94.1483 45.5171C95.7963 42.3329 99.6116 42.3998 102.281 42.7456L104.215 34.4471C104.215 34.4471 102.999 33.9368 101.221 33.9317C96.2918 33.9317 93.6032 39.6495 93.5743 39.7131L93.1077 40.8122V40.1103L93.1032 33.8976L82.131 39.8725ZM0.679688 39.8108V70.7652H11.4861L11.5079 47.5899C11.5079 45.7799 13.3038 44.1898 15.1009 44.2489C16.7848 44.3042 18.4778 45.8937 18.4778 47.5899L18.4823 70.7408H29.7598L29.7405 47.5893C29.7598 45.7587 31.6919 44.1673 33.5346 44.2489C35.2193 44.3235 36.8287 45.9149 36.8287 47.5899V70.7305H48.1692L48.1499 43.9173C48.1499 42.8137 48.1499 41.2139 47.853 39.931C47.2841 37.6364 45.3354 35.6568 43.1134 35.1317C37.9753 33.8687 33.2988 35.8277 30.596 40.3726L30.3428 40.7968L30.1628 40.3391C28.8163 36.975 26.6875 35.1124 23.8338 34.8058C19.0839 34.0673 15.419 35.876 11.9238 40.674L11.4861 41.2782V34.3057C10.8305 34.6413 0.679688 39.8108 0.679688 39.8108Z" fill="black"/>
</svg>
