<svg width="244" height="110" viewBox="0 0 244 110" fill="none" xmlns="http://www.w3.org/2000/svg">
<g clip-path="url(#clip0_32_13)">
<path d="M174.154 44.2846C173.004 41.2811 171.01 39.7794 168.177 39.7794C164.387 39.7794 162.487 41.4715 162.487 44.8621C162.487 46.3476 162.997 47.4605 164.007 48.1942C164.965 48.8759 166.881 49.9546 169.749 51.4482C172.616 52.9401 174.758 54.4776 176.157 56.0656C177.557 57.6454 178.256 59.7605 178.256 62.4092C178.256 64.5845 177.678 66.5352 176.51 68.268C175.345 70.0122 173.713 71.3658 171.615 72.342C169.516 73.3166 167.15 73.8079 164.515 73.8079C161.294 73.8079 158.514 73.066 156.165 71.5806C156.925 68.9221 157.435 66.7207 157.685 64.988H158.67C159.041 66.7386 159.878 68.1281 161.173 69.1564C162.477 70.183 164.023 70.702 165.811 70.702C167.495 70.702 168.928 70.2269 170.111 69.2865C171.294 68.3461 171.881 67.0169 171.881 65.3167C171.881 63.4782 171.337 62.157 170.25 61.3468C169.162 60.5366 167.262 59.492 164.549 58.1969C161.846 56.9117 159.816 55.5124 158.461 54.0188C157.113 52.5171 156.44 50.3598 156.442 47.5451C156.442 46.0433 156.692 44.6279 157.203 43.3084C157.698 41.9987 158.48 40.8159 159.491 39.8478C160.51 38.8553 161.78 38.0873 163.301 37.5179C164.821 36.9566 166.523 36.6719 168.413 36.6719C170.184 36.6719 171.816 36.9224 173.318 37.4317C174.822 37.9328 175.909 38.5201 176.584 39.1758C176.461 39.4605 176.289 39.9779 176.049 40.7377C175.663 41.9156 175.291 43.0985 174.934 44.2846H174.154ZM58.494 54.2743L59.7813 54.3263C64.3502 54.3263 66.6387 51.8419 66.6387 46.8699C66.6387 46.4989 66.6127 46.084 66.5606 45.6187C66.5136 45.1647 66.4469 44.7124 66.3624 44.2634C66.0958 42.6673 65.4132 41.6228 64.3258 41.1298C63.2368 40.6385 61.813 40.3961 60.0429 40.3961H58.4972L58.494 54.2743ZM50.7328 37.5911H61.761C65.8813 37.5927 68.6785 37.9376 70.1639 38.6291C73.1616 40.1992 74.663 42.6689 74.663 46.0352C74.663 48.5131 73.945 50.5484 72.503 52.1462C71.0616 53.7341 69.0913 54.8128 66.5867 55.3644L69.1934 59.7394L72.6392 65.1247L75.7491 69.9064L77.7662 73.1002C74.7038 72.7146 71.7389 72.7032 68.6738 73.1148C68.5729 73.1148 68.4754 73.1148 68.3813 73.1148L62.2339 62.2401L60.5159 59.3049L58.8499 56.5H58.4956L58.494 73.105C55.8674 72.713 53.3578 72.6934 50.7312 73.105L50.7328 37.5911ZM35.365 59.1308L30.7635 47.0732L25.8923 59.1292L35.365 59.1308ZM24.4831 62.2888L23.2039 65.9137L21.7964 69.9259L20.8455 72.9896C19.1877 72.7455 17.6013 72.7325 15.9435 72.9912L30.7652 37.1323C32.0915 37.3422 33.3593 37.3324 34.6856 37.1323L49.1562 73.1132L49.1026 73.1099C46.1151 72.7081 43.2383 72.6902 40.2508 73.1116H40.2281C38.7084 68.1737 37.4828 64.5666 36.558 62.2888H24.4831ZM7.99541 54.6827C8.77233 54.6827 9.42897 54.6566 9.95555 54.5964C10.4481 54.5443 10.9373 54.4565 11.4152 54.3296C12.995 53.9065 14.162 53.0524 14.9048 51.7752C15.6476 50.4899 16.0198 48.9963 16.0198 47.2701C16.0198 45.2331 15.5631 43.5768 14.6545 42.2996C13.7395 41.0306 12.5919 40.3928 11.2087 40.3928H7.99701L7.99541 54.6827ZM0.22937 73.1018L0.232621 37.5863H12.9885C16.6147 37.5879 19.3697 38.3216 21.2437 39.7973C23.1259 41.273 24.067 43.4564 24.067 46.3394C24.067 48.5831 23.6867 50.4394 22.9179 51.9151C22.1491 53.3908 21.052 54.5379 19.6363 55.3579C18.2206 56.1697 16.5529 56.7392 14.6269 57.0581C13.6598 57.2126 12.6326 57.333 11.5355 57.4111C10.4383 57.4974 9.26319 57.5413 7.99541 57.5413V73.1018C5.36553 72.7097 2.85759 72.6885 0.22937 73.1018ZM179.08 69.3386C179.08 68.1899 179.494 67.2072 180.331 66.3709C181.17 65.5347 182.145 65.1198 183.278 65.1198C184.02 65.1198 184.72 65.3101 185.377 65.6974C186.023 66.0781 186.572 66.6085 186.974 67.243C187.375 67.8677 187.584 68.5966 187.578 69.3402C187.578 70.5051 187.155 71.5074 186.317 72.3518C185.471 73.1881 184.46 73.6111 183.278 73.6111C182.129 73.6111 181.144 73.188 180.323 72.3339C179.494 71.4878 179.08 70.4856 179.08 69.3386ZM197.564 54.2905L198.851 54.3426C203.419 54.3426 205.708 51.8582 205.708 46.8861C205.708 46.5151 205.681 46.1003 205.63 45.635C205.583 45.181 205.517 44.7287 205.43 44.2797C205.164 42.6836 204.481 41.6391 203.394 41.1461C202.305 40.6547 200.879 40.4123 199.109 40.4123H197.564V54.2905ZM189.802 37.6074H200.83C204.95 37.609 207.748 37.9539 209.234 38.6454C212.229 40.2155 213.733 42.6852 213.731 46.0515C213.731 48.5294 213.015 50.5647 211.571 52.1625C210.129 53.7504 208.161 54.8291 205.655 55.3806L208.264 59.7556L211.711 65.141L214.819 69.9227L216.837 73.1148C213.775 72.7292 210.811 72.7178 207.745 73.1295C207.645 73.1295 207.547 73.1295 207.452 73.1295L201.304 62.2547L199.585 59.3196L197.92 56.5146H197.566L197.564 73.1197C194.937 72.7276 192.427 72.7081 189.801 73.1197L189.802 37.6074ZM128.954 37.5781L128.95 72.9472C125.905 72.7813 122.874 72.7943 119.848 72.9472L103.613 44.6441L103.609 72.9472C102.218 72.7552 100.877 72.7732 99.4629 72.9456L99.4663 37.6074C102.316 37.8075 105.137 37.7994 107.986 37.5976L124.806 66.8591L124.809 37.5846C126.21 37.8189 127.548 37.8059 128.95 37.5846V37.5797H128.954V37.5781ZM223.025 51.637C223.023 56.487 223.146 59.7068 223.394 61.2687C224.979 71.574 235.747 72.7048 239.607 63.3594C240.228 61.8316 240.54 58.2588 240.542 52.6229V37.7538C241.946 37.9751 243.285 37.9653 244.688 37.757V55.3595C244.687 57.6259 244.587 59.6987 244.305 61.9536C242.588 76.3867 219.562 76.6991 216.07 64.4267C215.526 62.4597 215.259 60.3364 215.259 58.0587V37.6106C217.887 38.0239 220.397 38.006 223.023 37.6155L223.025 51.637ZM98.0129 71.9255C97.932 71.3805 97.8506 70.8159 97.8506 70.2969C97.8506 69.7779 97.932 69.2133 98.0129 68.6666L98.085 68.1688L98.1578 67.6481L97.6375 67.7246C95.2156 68.0646 92.069 68.4112 87.097 68.4275V56.3877H91.6776C93.6634 56.3877 95.6063 56.5228 97.4478 56.7912L97.9694 56.8661L97.896 56.3487L97.8245 55.8492C97.7464 55.3026 97.6635 54.738 97.6635 54.2189C97.6635 53.7016 97.7597 53.0622 97.8439 52.4976L97.9708 51.6353L97.4592 51.6971L96.9629 51.7557C95.3819 51.9412 93.5872 52.1511 91.6776 52.1511H87.099V41.9791C91.6235 41.9092 94.6733 42.2769 97.6395 42.6917L98.1598 42.765L98.0863 42.2492L98.0162 41.7497C97.9354 41.203 97.8539 40.6401 97.8539 40.1211C97.8539 39.6021 97.9354 39.0375 98.0162 38.4908L98.1511 37.5423L97.6963 37.5456H79.2042L79.2009 72.8691H98.1464L98.085 72.425L98.0129 71.9255ZM155.795 42.7145L155.726 42.2069C155.696 41.9693 155.652 41.7318 155.613 41.4991C155.531 41.0371 155.447 40.5588 155.447 40.0771C155.447 39.6395 155.527 39.1953 155.61 38.7268C155.652 38.4892 155.696 38.2452 155.728 37.9995L155.789 37.5537L130.482 37.5505L130.545 37.9962L130.623 38.5364C130.703 39.0684 130.779 39.5712 130.779 40.0739C130.779 40.6222 130.698 41.1608 130.619 41.6814L130.47 42.7243L130.992 42.6445C133.185 42.3306 136.096 41.9726 139.353 41.9466L139.35 73.0969L139.763 73.079C140.243 73.0579 140.728 73.0205 141.198 72.9847C141.889 72.931 142.604 72.8757 143.299 72.8757C143.962 72.8757 144.681 72.931 145.376 72.9847C145.856 73.0205 146.352 73.0579 146.836 73.079L147.249 73.0969L147.252 41.9466C149.981 41.9775 152.677 42.3159 155.288 42.6478L155.797 42.7129L155.795 42.7145Z" fill="black"/>
</g>
<defs>
<clipPath id="clip0_32_13">
<rect width="244" height="110" fill="white"/>
</clipPath>
</defs>
</svg>
