<svg width="244" height="110" viewBox="0 0 244 110" fill="none" xmlns="http://www.w3.org/2000/svg">
<g clip-path="url(#clip0_32_10)">
<path d="M71.1371 55.8517C71.1371 39.6866 72.9972 35.2578 77.2488 35.2578C81.5005 35.2578 83.6263 39.8194 83.6263 48.7213H85.3535C85.3978 38.0036 82.652 33.3534 76.4959 33.3534C69.3655 33.3534 65.1582 41.591 65.1582 55.8517C65.1582 70.7768 69.6755 77.6414 76.6288 77.6414C82.6519 77.6414 85.8407 72.6369 85.7964 61.0777H84.0692C84.0692 70.8654 81.5448 75.737 77.2488 75.737C73.5286 75.737 71.0928 72.4597 71.0928 55.8517H71.1371ZM105.947 77.3314H107.63V33.6191H105.947V52.8844H94.4769V33.6191H88.7194V77.3314H94.4326V54.4788H105.947V77.3314ZM159.935 77.6414C166.224 77.6414 170.121 71.2197 170.121 55.5417C170.121 40.2623 166.888 33.3534 159.89 33.3534C153.291 33.3534 148.907 41.4581 148.907 55.5417C148.907 70.6439 153.69 77.6414 159.979 77.6414H159.935ZM122.157 77.6414C128.446 77.6414 132.343 71.2197 132.343 55.5417C132.343 40.3066 129.11 33.3534 122.113 33.3534C115.425 33.3534 111.041 41.3695 111.041 55.5417C111.041 70.6439 115.824 77.6414 122.113 77.6414H122.157ZM136.019 77.3314H150.058V75.6928H141.821V33.7077H136.019V77.3314ZM210.069 77.3314H224.064V75.6928H215.782V53.4601H223.178V51.8215H215.782V35.2578H223.754V33.6191H210.113V77.3314H210.069ZM199.528 77.3314H205.286V33.6191H199.617V77.3314H199.528ZM58.4707 77.3314V60.4577L65.3353 33.6634H63.4752L57.452 57.4904L51.2517 33.6634H45.3171L52.7575 60.4577V77.3314H58.515H58.4707ZM12.4111 58.8633C20.6487 58.8633 24.5903 53.8587 24.5903 46.1969C24.5903 38.5351 20.6044 33.6191 12.4111 33.6191H5.98931V77.3314H11.7468V58.8633H12.4111ZM168.394 55.4531C168.394 69.4924 164.983 75.6928 160.643 75.6928C157.809 75.6928 154.886 72.2826 154.886 55.4974C154.886 37.9593 157.366 35.2578 160.643 35.2578C165.338 35.2578 168.394 41.4581 168.394 55.4531ZM130.572 55.4531C130.572 69.4924 127.161 75.6928 122.821 75.6928C120.031 75.6928 117.108 72.2826 117.108 55.4974C117.108 37.9593 119.544 35.2578 122.821 35.2578C127.516 35.2578 130.572 41.4581 130.572 55.4531ZM12.5439 35.3463C19.4972 35.3463 22.7745 39.4651 22.7745 46.2412C22.7745 53.0173 19.3643 57.1803 12.5439 57.1803H11.7468V35.3463H12.5439ZM32.2521 41.0152C32.2521 37.3393 33.8022 35.3463 36.5038 35.3463C40.6669 35.3463 42.6155 39.288 42.6155 47.0384H44.3428C44.3871 37.5607 41.7741 33.3977 35.6623 33.3977C30.6135 33.3977 27.0704 37.0736 27.0704 43.0967C27.0704 54.8774 39.6925 57.4904 39.6925 69.581C39.6925 73.7441 36.8138 75.7813 34.2451 75.7813C29.6834 75.7813 26.6275 72.2826 26.6275 63.4693H24.9003C24.8117 73.3898 28.4876 77.6857 34.6437 77.6857C40.9326 77.6857 44.8742 73.6998 44.8742 67.1009C44.8742 56.3832 32.2078 51.4672 32.2078 41.0595L32.2521 41.0152ZM230.707 40.9266C230.707 37.295 232.301 35.3463 235.047 35.3463C239.255 35.3463 241.248 39.2437 241.248 47.0384H242.975C243.063 37.5607 240.362 33.3977 234.206 33.3977C229.113 33.3977 225.481 37.0736 225.481 43.0967C225.481 55.0988 238.059 57.7561 238.059 70.1125C238.059 73.3455 236.464 75.8256 233.187 75.8256C228.935 75.8256 226.012 72.3269 226.012 63.5135H224.285C224.241 73.3898 227.607 77.6857 233.364 77.73C239.52 77.7743 243.24 73.8327 243.24 67.4995C243.24 56.6046 230.663 51.5115 230.663 40.9709L230.707 40.9266ZM190.095 77.3314H194.966V56.9146H184.382V58.5533H189.209V66.8794C189.209 73.3898 187.305 75.6928 184.869 75.6928C181.37 75.6928 179.554 72.4154 179.554 55.8074C179.554 39.6866 181.591 35.2578 186.242 35.2578C190.316 35.2578 192.309 39.7751 192.309 48.677H194.036C194.081 37.9593 191.423 33.3091 185.489 33.3091C178.048 33.3534 173.487 41.5467 173.487 55.8517C173.487 70.7768 177.65 77.6414 184.116 77.6414H184.249C186.817 77.6414 188.943 75.9585 189.696 73.6555L190.095 77.3314ZM-0.0338695 34.5049H1.29477V34.7706C1.29477 34.8149 1.33906 34.8592 1.33906 34.9035C1.33906 35.302 1.02904 35.6121 0.630452 35.6121C0.276147 35.6121 -0.0338695 35.2578 -0.0338695 34.9035V34.7706V34.5049ZM-0.69819 33.6191V35.0363C-0.69819 35.4349 -0.609614 35.7892 -0.388174 36.0549C-0.122446 36.3207 0.231859 36.4978 0.630452 36.4978H0.67474C1.11762 36.4978 1.47192 36.3207 1.69337 36.0107C1.78194 35.8778 1.87052 35.7006 1.91481 35.5235L3.68633 36.8521V35.7892L1.95909 34.682V34.5049H3.68633V33.6191H-0.69819ZM-0.69819 41.4581H3.68633V40.8381L0.719028 38.3579H3.68633V37.5164H-0.69819V38.1365L2.22482 40.5723H-0.69819V41.3695V41.4581ZM-0.69819 42.0781V44.4254H3.68633V43.5839H0.0104186V42.0781H-0.69819ZM2.97772 47.6141V47.6584C2.97772 48.4556 2.35769 49.0756 1.5605 49.0756H1.38335C0.586164 49.0756 -0.0338695 48.4556 -0.0338695 47.6584V47.5698C-0.0338695 46.7727 0.586164 46.1083 1.38335 46.1083H1.5605C2.35769 46.1083 2.97772 46.7727 2.97772 47.5698V47.6141ZM-0.831055 47.6141V47.7027C-0.831055 48.9871 0.187571 50.0057 1.47192 50.0057C2.71199 50.0057 3.73062 48.9871 3.73062 47.7027V47.4813C3.73062 46.2412 2.71199 45.2226 1.47192 45.2226C0.187571 45.2226 -0.831055 46.2412 -0.831055 47.4813V47.6141ZM-0.69819 53.8145H2.04767C2.35769 53.8145 2.62341 53.903 2.84485 54.0359C2.93343 54.1245 2.97772 54.2573 2.97772 54.4345V54.7002L3.73062 54.6559V54.2573C3.73062 53.9473 3.59775 53.6373 3.4206 53.4159C3.11058 53.1058 2.71199 52.9287 2.22482 52.9287C2.13625 52.9287 2.04767 52.9287 1.95909 52.973H0.0104186V51.6001H3.68633V50.8029H-0.69819V53.8145ZM2.97772 57.4018V57.4461C2.97772 58.2433 2.35769 58.9076 1.5605 58.9076H1.38335C0.586164 58.9076 -0.0338695 58.2433 -0.0338695 57.4461V57.3575C-0.0338695 56.5603 0.586164 55.896 1.38335 55.896H1.5605C2.35769 55.896 2.97772 56.5603 2.97772 57.3575V57.4018ZM-0.831055 57.4018V57.5347C-0.831055 58.7747 0.187571 59.7933 1.47192 59.7933C2.71199 59.7933 3.73062 58.7747 3.73062 57.5347V57.2689C3.73062 56.0289 2.71199 55.0102 1.47192 55.0102C0.187571 55.0102 -0.831055 56.0289 -0.831055 57.2689V57.4018ZM3.73062 64.045V62.9821L2.04767 61.9635L3.64204 60.9891V59.9705L1.38335 61.4763L-0.69819 60.1034V61.1663L0.67474 61.9635L-0.69819 62.7606V63.7793L1.38335 62.4506L3.73062 64.045ZM-0.653902 68.6067H3.73062V68.0309L0.763316 65.5508H3.73062V64.7093H-0.653902V65.2851L2.26911 67.7652H-0.653902V68.651V68.6067ZM2.57913 69.4481C2.84485 69.7139 3.02201 70.0682 3.02201 70.5111C3.0663 70.5111 3.0663 70.5553 3.0663 70.5996C3.0663 71.3968 2.40197 72.0611 1.5605 72.0611H1.42764C0.630452 72.0611 -0.0338695 71.3968 -0.0338695 70.5553C-0.0338695 70.1567 0.143283 69.7582 0.453299 69.4924H-0.565326C-0.69819 69.8024 -0.831055 70.201 -0.831055 70.5553V70.7325C-0.831055 71.3082 -0.609614 71.8397 -0.25531 72.2383C0.187571 72.6812 0.763316 72.9469 1.42764 72.9469H1.5605C2.18053 72.9469 2.75628 72.6812 3.15487 72.2383C3.55346 71.8397 3.7749 71.264 3.7749 70.6882V70.5553C3.7749 70.1567 3.68633 69.7582 3.50918 69.4481H2.57913ZM-0.653902 77.2428H3.73062V76.4014H0.0547066V74.6298H3.73062V73.7441H-0.653902V77.2871V77.2428Z" fill="black"/>
</g>
<defs>
<clipPath id="clip0_32_10">
<rect width="244" height="110" fill="white"/>
</clipPath>
</defs>
</svg>
