<svg width="325" height="111" viewBox="0 0 325 111" fill="none" xmlns="http://www.w3.org/2000/svg">
<path d="M25.4648 46.1232V64.831H0.102295V46.1232H5.31376V60.6351H10.2045V46.1232H15.416V60.6351H20.2533V46.1232H25.4648ZM39.6996 57.6686H37.2943V64.831H32.0294V46.1232H37.2943V53.3925H39.8333L44.2964 46.1232H49.8553L44.0024 55.1564L49.9088 64.831H43.949L39.6996 57.6686ZM72.4949 46.1232L64.7445 60.5817C63.9249 62.1317 62.9183 63.3077 61.7245 64.1094C60.5486 64.9112 59.2569 65.3121 57.8494 65.3121C56.816 65.3121 55.7113 65.0805 54.5354 64.6172L55.7915 60.7153C56.522 60.9291 57.1456 61.036 57.6623 61.036C58.179 61.036 58.6333 60.9202 59.0253 60.6886C59.4351 60.4569 59.8092 60.0917 60.1477 59.5928L52.8784 46.1232H58.464L62.8203 55.1564L67.3369 46.1232H72.4949ZM93.9514 46.1232V64.831H88.74V50.3191H83.3682L83.2613 53.3658C83.1722 56.0383 82.9495 58.212 82.5931 59.8868C82.2546 61.5616 81.6666 62.8622 80.8292 63.7887C79.9918 64.6974 78.807 65.1517 77.2748 65.1517C76.5621 65.1517 75.7603 65.0448 74.8695 64.831L75.1634 60.5015C75.3951 60.5549 75.6356 60.5817 75.885 60.5817C76.5799 60.5817 77.1144 60.3055 77.4886 59.7532C77.8627 59.2008 78.13 58.4347 78.2903 57.4548C78.4507 56.457 78.5576 55.1653 78.611 53.5796L78.8783 46.1232H93.9514ZM115.645 60.742V64.831H100.626V46.1232H115.298V50.2122H105.864V53.3658H114.176V57.3212H105.864V60.742H115.645ZM105.142 44.6266C104.537 44.6266 104.029 44.4395 103.619 44.0653C103.227 43.6734 103.031 43.1656 103.031 42.542C103.031 41.9184 103.227 41.4106 103.619 41.0186C104.029 40.6267 104.537 40.4307 105.142 40.4307C105.748 40.4307 106.247 40.6267 106.639 41.0186C107.049 41.4106 107.254 41.9184 107.254 42.542C107.254 43.1656 107.049 43.6734 106.639 44.0653C106.247 44.4395 105.748 44.6266 105.142 44.6266ZM110.808 44.6266C110.202 44.6266 109.695 44.4395 109.285 44.0653C108.893 43.6734 108.697 43.1656 108.697 42.542C108.697 41.9184 108.893 41.4106 109.285 41.0186C109.695 40.6267 110.202 40.4307 110.808 40.4307C111.414 40.4307 111.913 40.6267 112.305 41.0186C112.715 41.4106 112.919 41.9184 112.919 42.542C112.919 43.1656 112.715 43.6734 112.305 44.0653C111.913 44.4395 111.414 44.6266 110.808 44.6266ZM134.963 55.0495C136.067 55.4058 136.905 55.9582 137.475 56.7065C138.063 57.4548 138.357 58.3813 138.357 59.4859C138.357 61.1429 137.706 62.4524 136.406 63.4146C135.123 64.3589 133.297 64.831 130.927 64.831H121.333V46.1232H130.419C132.664 46.1232 134.401 46.5508 135.631 47.406C136.878 48.2434 137.501 49.4371 137.501 50.9872C137.501 51.8959 137.279 52.6977 136.833 53.3925C136.406 54.0874 135.782 54.6397 134.963 55.0495ZM126.544 53.6063H129.911C131.408 53.6063 132.156 52.9916 132.156 51.7623C132.156 50.5329 131.408 49.9182 129.911 49.9182H126.544V53.6063ZM130.713 61.036C132.245 61.036 133.012 60.3857 133.012 59.085C133.012 57.82 132.245 57.1875 130.713 57.1875H126.544V61.036H130.713ZM157.356 46.1232L162.675 53.5261L167.966 46.1232H170.291L163.904 55.1029L170.799 64.831H168.474L162.675 56.7866L156.875 64.831H154.604L161.472 55.1831L155.085 46.1232H157.356ZM184.75 64.9914C182.897 64.9914 181.213 64.5816 179.699 63.762C178.202 62.9246 177.026 61.7843 176.171 60.3411C175.334 58.898 174.915 57.2766 174.915 55.4771C174.915 53.6776 175.334 52.0562 176.171 50.6131C177.026 49.1699 178.202 48.0385 179.699 47.2189C181.213 46.3815 182.897 45.9628 184.75 45.9628C186.603 45.9628 188.269 46.3726 189.748 47.1922C191.244 48.0118 192.42 49.1521 193.275 50.6131C194.131 52.0562 194.558 53.6776 194.558 55.4771C194.558 57.2766 194.131 58.9069 193.275 60.3679C192.42 61.811 191.244 62.9424 189.748 63.762C188.269 64.5816 186.603 64.9914 184.75 64.9914ZM184.75 63.2275C186.229 63.2275 187.565 62.8979 188.759 62.2386C189.952 61.5616 190.888 60.6351 191.565 59.4592C192.242 58.2655 192.58 56.9381 192.58 55.4771C192.58 54.0161 192.242 52.6977 191.565 51.5217C190.888 50.328 189.952 49.4015 188.759 48.7423C187.565 48.0652 186.229 47.7267 184.75 47.7267C183.271 47.7267 181.926 48.0652 180.714 48.7423C179.521 49.4015 178.576 50.328 177.881 51.5217C177.204 52.6977 176.866 54.0161 176.866 55.4771C176.866 56.9381 177.204 58.2655 177.881 59.4592C178.576 60.6351 179.521 61.5616 180.714 62.2386C181.926 62.8979 183.271 63.2275 184.75 63.2275ZM216.1 46.1232V64.831H214.149V47.8336H205.116L204.902 54.0874C204.813 56.6708 204.599 58.7554 204.261 60.3411C203.94 61.909 203.441 63.085 202.764 63.8689C202.087 64.635 201.187 65.0181 200.065 65.0181C199.584 65.0181 199.085 64.9557 198.568 64.831L198.729 63.0671C199.032 63.1384 199.326 63.174 199.611 63.174C200.395 63.174 201.027 62.8622 201.508 62.2386C202.007 61.615 202.381 60.6529 202.631 59.3523C202.88 58.0338 203.049 56.2967 203.138 54.1408L203.406 46.1232H216.1ZM241.982 63.1206V69.0269H240.138V64.831H223.808L223.782 69.0269H221.937L221.964 63.1206H222.9C224.129 63.0493 224.984 62.0783 225.465 60.2075C225.946 58.3189 226.24 55.6464 226.347 52.1899L226.561 46.1232H239.175V63.1206H241.982ZM228.111 52.3769C228.022 55.2277 227.799 57.5795 227.443 59.4325C227.104 61.2676 226.525 62.497 225.706 63.1206H237.224V47.8336H228.271L228.111 52.3769ZM248.688 46.1232H250.639V61.624L262.612 46.1232H264.403V64.831H262.452V49.357L250.479 64.831H248.688V46.1232ZM289.022 46.1232V64.831H287.071V56.1987H275.366V64.831H273.388V46.1232H275.366V54.4615H287.071V46.1232H289.022ZM309.904 47.8336H299.935L299.962 64.831H298.011V46.1232H309.904V47.8336Z" fill="black"/>
<path fill-rule="evenodd" clip-rule="evenodd" d="M212.803 0.238281H324.371V110.258H212.803V81.281H215.921V107.14H321.253V3.35625H215.921V28.9597H212.803V0.238281Z" fill="black"/>
</svg>
