<svg width="194" height="110" viewBox="0 0 194 110" fill="none" xmlns="http://www.w3.org/2000/svg">
<path d="M62.753 44.984C72.867 44.984 78.135 49.979 78.135 60.251V81.427H69.425L69.005 76.714C66.265 80.442 61.559 82.342 57.134 82.342C50.812 82.342 44.771 78.542 44.771 71.226C44.771 63.206 52.147 60.04 59.101 60.04C61.91 60.04 65.351 60.462 68.513 61.377V60.603C68.513 55.748 65.983 53.497 60.786 53.497C57.344 53.497 53.692 54.482 50.601 56.803L46.949 49.909C50.671 47.095 56.15 44.984 62.753 44.984ZM59.733 74.603C64.017 74.603 68.443 71.789 68.513 67.427C65.983 66.653 63.244 66.301 60.926 66.301C57.344 66.301 54.535 67.568 54.535 70.593C54.535 73.196 56.642 74.603 59.732 74.603H59.733ZM108.028 45.898H118.494L98.826 95.498H89.766L94.963 81.428L79.791 45.898H90.187L99.529 69.045L108.028 45.898ZM120.763 82.342C117.392 82.342 114.652 79.598 114.652 76.222C114.652 72.844 117.322 70.171 120.763 70.171C124.135 70.171 126.874 72.844 126.874 76.221C126.874 79.598 124.135 82.342 120.763 82.342ZM153.278 44.984C154.963 44.984 156.579 45.266 157.984 45.758L155.525 54.974C154.05 54.411 152.645 54.13 151.241 54.13C146.886 54.13 143.022 56.874 143.022 61.94V81.427H133.329V45.899H142.109L142.531 50.823C144.919 47.165 148.782 44.984 153.278 44.984ZM184.307 45.898H194V81.428H185.22L184.799 77.136C182.481 80.372 178.758 82.342 174.192 82.342C166.676 82.342 160.847 76.995 160.847 68.693V45.899H170.54V66.864C170.54 71.015 173.49 73.337 177.072 73.337C180.654 73.337 184.307 70.874 184.307 66.442V45.898ZM59.157 36.218L61.034 39.944C59.942 40.868 58.337 41.586 55.88 41.586C51.476 41.586 49.052 39.295 49.052 34.816V28.114H45.775V23.874H49.052V18.781H53.763V23.876H59.873V28.116H53.763V34.338C53.763 36.253 54.651 37.176 56.46 37.176C57.245 37.176 58.235 36.971 59.157 36.219V36.218ZM73.392 23.43C77.249 23.43 80.049 25.995 80.049 30.063V41.141H75.372V31.089C75.372 29.003 74.109 27.807 72.027 27.807C70.183 27.807 68.135 28.935 68.135 31.157V41.141H63.425V15.498H68.135V25.653C69.33 24.251 71.207 23.43 73.392 23.43ZM87.267 34.166C87.779 36.32 89.35 37.516 91.637 37.516C93.241 37.516 94.675 36.936 95.767 35.91L98.839 38.85C97.064 40.56 94.572 41.586 91.773 41.586C86.413 41.586 82.42 37.961 82.42 32.456C82.42 27.226 86.038 23.43 91.432 23.43C97.167 23.43 99.863 27.465 99.863 31.602C99.863 32.183 99.761 33.517 99.624 34.166H87.267ZM91.397 27.533C89.213 27.533 87.745 28.798 87.267 30.883H95.289C95.119 28.867 93.718 27.533 91.397 27.533ZM2.22 62.606C6.214 60.893 6.527 58.346 8.349 53.901C10.752 48.037 15.432 46.226 15.432 46.226C15.432 46.226 11.078 49.566 9.324 53.964C7.887 57.569 7.604 61.567 2.974 63.818C2.03741 64.2798 1.06529 64.6657 0.067 64.972C0.253 67.407 0.877 69.789 1.907 72.005C8.434 71.147 10.919 66.406 12.8 60.759C15.685 52.094 18.902 50.329 18.902 50.329C18.902 50.329 16.727 52.059 12.643 64.376C10.458 70.966 5.67 72.901 2.653 73.453C3.15842 74.3449 3.73002 75.1977 4.363 76.004C6.082 76.114 8.168 76.079 10.109 75.588C12.559 74.968 14.723 73.842 16.233 72.91C20.968 69.843 23.731 64.696 25.488 61.498C25.863 60.816 27.924 57.624 28.704 55.361C29.603 52.758 29.587 50.634 29.316 48.873C30.615 50.071 31.264 51.363 31.621 52.211C31.844 52.74 32.048 53.584 32.179 54.512C32.8446 54.3448 33.4673 54.0384 34.006 53.613C35.326 52.586 37.169 50.223 32.026 46.306C28.6432 44.045 24.6649 42.8401 20.596 42.844C9.23 42.844 0.015 52.02 0 63.344C0.76 63.16 1.502 62.913 2.22 62.606ZM14.867 75.288C13.433 75.968 11.604 76.633 9.325 77.079C7.85 77.369 6.555 77.39 5.439 77.272C6.93385 78.8914 8.67824 80.2611 10.606 81.329C11.533 80.144 13.276 77.88 14.867 75.288Z" fill="black"/>
<path d="M32.219 23.9702V45.2402C34.439 46.8902 36.632 49.1202 36.449 51.4152C36.236 54.0632 33.903 55.1392 32.292 55.5712C32.316 55.8862 32.329 56.2012 32.332 56.5172C32.332 57.3302 33.01 57.8712 33.01 57.8712C33.787 58.5662 35.321 59.6312 35.699 59.9072C36.1 60.2292 35.761 60.8872 35.496 61.1222C34.996 61.4742 34.83 61.3422 34.709 61.9022C34.689 62.4222 34.959 62.6332 35.199 62.7232C35.239 62.7262 35.336 62.7672 35.376 62.7662C35.3894 62.8091 35.4123 62.8485 35.4429 62.8814C35.4736 62.9142 35.5112 62.9398 35.553 62.9562C35.611 63.1112 35.597 63.2812 35.593 63.3292C35.548 63.8912 35.003 64.1682 33.923 64.5692C34.591 64.6062 35.503 64.7792 35.288 65.4692C35.233 65.8352 34.961 65.9422 34.693 66.0872C34.411 66.2232 34.313 66.7102 34.298 66.8602C34.283 67.4882 34.94 67.8542 34.897 68.7022C34.869 69.0442 34.707 69.5912 34.312 69.9252C32.923 71.1002 29.294 70.4592 27.541 70.8382C25.452 71.2332 22.871 77.7682 22.571 83.8102C33.019 82.8192 41.313 74.0502 41.313 63.3752V23.9702H32.219Z" fill="black"/>
</svg>
