<svg width="190" height="110" viewBox="0 0 190 110" fill="none" xmlns="http://www.w3.org/2000/svg">
<path d="M54.8451 37.2003V35.5659H43.2224V37.2003H48.7998L40.3683 66.4154L32.2289 37.2003H37.2425V35.5659H22.5226V37.2003H27.1132L18.6797 66.4154L10.5363 37.2003H15.5539V35.5659H0.88916V37.2003H4.58701L15.5416 76.4261H17.3681L27.626 41.082L27.8916 39.8562L37.2323 76.4261H39.0649L50.473 37.2003H54.8451ZM96.7513 70.0213V70.2971C96.7513 70.2971 96.9331 67.8353 96.7513 70.0213L96.7717 46.5982H99.2785V45.5767H92.2219L84.7466 66.2111L77.6573 45.5767H70.6539V46.5982H73.1259L73.1178 70.2971H70.7989V71.5229H78.1538V70.2971H74.6847V47.824L82.9998 72.3401H84.1582L92.9043 48.0283L92.8655 70.2971H90.1646V71.5229H99.5502V70.2971H96.7268L96.7472 70.0213H96.7513ZM112.916 44.9638H111.459L103.348 70.2971H100.811V71.5229H108.403V70.2971H104.748L107.224 62.5337H114.143L116.311 70.2971H113.43V71.5229H122.616V70.2971H120.132L112.916 44.9638ZM136.939 46.5982H140.719V63.7595L129.701 45.5767H123.272V46.5982H125.554V70.2971H123.272V71.5229H130.545V70.2971H126.716V48.8455L140.707 72.1358L140.719 71.9315V72.1358H141.877V46.5982H144.364V45.5767H136.939V46.5982ZM59.0251 45.3724H58.9924C53.0268 45.3724 49.5312 49.0498 49.5108 55.7917H49.5046V61.5122H49.5108C49.5435 68.2541 53.0309 71.9315 58.9903 71.9315H59.0251C64.9866 71.9315 68.472 68.2541 68.5046 61.5122H68.5149V55.7917H68.5046C68.4863 49.0498 64.9907 45.3724 59.0251 45.3724ZM165.417 50.2756C165.374 50.2756 165.343 50.2756 165.3 50.0713H165.284C165.155 50.0713 165.014 49.867 164.869 49.867C164.391 49.5889 163.845 49.4476 163.292 49.4584C161.388 49.4584 160.495 50.2756 159.658 51.5014C159.112 52.3186 158.536 53.5444 158.205 54.1573C158.185 53.7487 158.091 53.1358 157.678 51.91C157.126 50.4799 156.603 50.0713 156.52 49.867H152.015V51.0928H154.867V68.2541H152.015V69.2756H162.258V68.2541H158.213V56.4046C158.652 55.1788 159.325 53.953 160.33 52.3186C161.355 51.0928 161.882 50.6842 162.469 50.6842C162.726 50.6842 162.734 51.91 162.72 52.5229C162.72 52.5229 162.716 52.7272 162.708 52.7272C162.708 55.3831 163.466 55.996 164.404 55.996C165.335 55.996 166.089 55.3831 166.089 52.7272C166.089 51.91 165.832 50.8885 165.441 50.2756H165.417ZM63.8588 64.5767C63.8588 70.0928 62.2571 70.91 58.9924 70.91H58.9863C55.746 70.91 54.1341 70.0928 54.0994 64.5767V52.9315C54.1239 47.4154 55.746 46.5982 58.9863 46.5982H58.9924C62.2571 46.5982 63.8588 47.4154 63.8588 52.9315H63.8547V64.5767H63.8588ZM107.547 61.5122L110.766 51.5014H111.022L113.851 61.5122H107.547ZM147.206 64.3724C145.812 64.3724 144.68 65.5982 144.68 67.0283C144.68 68.6627 145.812 69.8885 147.206 69.8885C148.601 69.8885 149.735 68.6627 149.735 67.0283C149.735 65.5982 148.601 64.3724 147.206 64.3724ZM187.485 68.2541V69.2756H182.791C181.875 69.2756 181.26 68.0498 181.305 66.2111C180.942 66.824 179.017 69.8885 175.585 69.8885C170.467 69.8885 170.604 65.1896 170.604 65.1896V51.0928H167.654V49.867H173.959V67.0283C173.959 67.8455 174.459 68.6627 176.028 68.6627C179.079 68.6627 181.258 64.5767 181.303 64.5767V49.867H184.654V67.6412C184.654 67.6412 184.732 68.2541 185.234 68.2541H187.485Z" fill="black"/>
</svg>
