<svg width="40" height="40" viewBox="0 0 40 40" fill="none" xmlns="http://www.w3.org/2000/svg">
<path d="M20 9.16664L19.1 10.0333C19.2166 10.1543 19.3564 10.2505 19.511 10.3162C19.6657 10.382 19.832 10.4158 20 10.4158C20.168 10.4158 20.3343 10.382 20.489 10.3162C20.6436 10.2505 20.7834 10.1543 20.9 10.0333L20 9.16664ZM15.71 30.5366C13.1833 28.545 10.4217 26.6 8.23 24.1333C6.08333 21.7133 4.58333 18.8916 4.58333 15.2283H2.08333C2.08333 19.6716 3.93333 23.0616 6.36166 25.7933C8.74499 28.4766 11.785 30.6266 14.1617 32.5L15.71 30.5366ZM4.58333 15.2283C4.58333 11.645 6.60833 8.63831 9.37333 7.37331C12.06 6.14498 15.67 6.46998 19.1 10.0333L20.9 8.30164C16.8333 4.07331 12.1067 3.37498 8.33333 5.09998C4.64333 6.78831 2.08333 10.7083 2.08333 15.2283H4.58333ZM14.1617 32.5C15.0167 33.1733 15.9333 33.89 16.8617 34.4333C17.79 34.9766 18.85 35.4166 20 35.4166V32.9166C19.4833 32.9166 18.8767 32.7166 18.1233 32.275C17.3683 31.835 16.5867 31.2283 15.71 30.5366L14.1617 32.5ZM25.8383 32.5C28.215 30.625 31.255 28.4783 33.6383 25.7933C36.0667 23.06 37.9167 19.6716 37.9167 15.2283H35.4167C35.4167 18.8916 33.9167 21.7133 31.77 24.1333C29.5783 26.6 26.8167 28.545 24.29 30.5366L25.8383 32.5ZM37.9167 15.2283C37.9167 10.7083 35.3583 6.78831 31.6667 5.09998C27.8933 3.37498 23.17 4.07331 19.1 8.29998L20.9 10.0333C24.33 6.47164 27.94 6.14498 30.6267 7.37331C33.3917 8.63831 35.4167 11.6433 35.4167 15.2283H37.9167ZM24.29 30.5366C23.4133 31.2283 22.6317 31.835 21.8767 32.275C21.1217 32.715 20.5167 32.9166 20 32.9166V35.4166C21.15 35.4166 22.21 34.975 23.1383 34.4333C24.0683 33.89 24.9833 33.1733 25.8383 32.5L24.29 30.5366Z" fill="#8f63df"/>
</svg>
