<svg width="40" height="40" viewBox="0 0 40 40" fill="none" xmlns="http://www.w3.org/2000/svg">
<path d="M20 22.751C20.5745 22.7511 21.126 22.9795 21.5322 23.3857C21.9377 23.7914 22.1653 24.3415 22.166 24.915L22.1621 25.0576C22.1417 25.3886 22.0443 25.7112 21.877 25.999C21.7371 26.2394 21.552 26.4498 21.333 26.6182V28.8506C21.3329 29.204 21.1923 29.544 20.9424 29.7939C20.6925 30.0436 20.3533 30.1845 20 30.1846C19.6465 30.1845 19.3066 30.0439 19.0566 29.7939C18.8067 29.544 18.6661 29.204 18.666 28.8506V26.6172C18.4472 26.4489 18.2618 26.2393 18.1221 25.999C17.9309 25.6701 17.831 25.2955 17.833 24.915C17.8337 24.3415 18.0623 23.7914 18.4678 23.3857C18.874 22.9795 19.4255 22.7511 20 22.751Z" fill="#FBC442"/>
<path fill-rule="evenodd" clip-rule="evenodd" d="M20 2.93359C22.0508 2.93361 24.0176 3.74826 25.4678 5.19824C26.9181 6.64852 27.7334 8.61598 27.7334 10.667V15.0498H29.0664C30.304 15.0498 31.4911 15.5419 32.3662 16.417C33.2414 17.2921 33.7334 18.4792 33.7334 19.7168V32.4014C33.73 33.6375 33.2372 34.8222 32.3633 35.6963C31.4892 36.5703 30.3045 37.0638 29.0684 37.0674H10.9316C9.6955 37.0639 8.51081 36.5704 7.63672 35.6963C6.76274 34.8222 6.27005 33.6375 6.2666 32.4014V19.7168C6.26664 18.4792 6.75867 17.2921 7.63379 16.417C8.50892 15.542 9.69605 15.0498 10.9336 15.0498H12.2666V10.667C12.2666 8.616 13.081 6.64852 14.5312 5.19824C15.9815 3.74798 17.949 2.93361 20 2.93359ZM10.9336 17.7168C10.4033 17.7168 9.89457 17.9278 9.51953 18.3027C9.14451 18.6778 8.93363 19.1864 8.93359 19.7168V32.3965L8.94434 32.5947C8.99245 33.052 9.19559 33.4816 9.52344 33.8096C9.89835 34.1845 10.4063 34.3969 10.9365 34.4004H29.0635C29.5936 34.3968 30.1007 34.1843 30.4756 33.8096C30.8497 33.4354 31.062 32.9294 31.0664 32.4004V19.7168C31.0664 19.1864 30.8555 18.6778 30.4805 18.3027C30.1054 17.9278 29.5967 17.7168 29.0664 17.7168H10.9336ZM20 5.60059C18.6563 5.6006 17.3672 6.13381 16.417 7.08398C15.4668 8.03417 14.9336 9.32324 14.9336 10.667V15.0498H25.0664V10.667C25.0664 9.32326 24.5332 8.03416 23.583 7.08398C22.6328 6.13383 21.3437 5.6006 20 5.60059Z" fill="#FBC442"/>
</svg>
