<svg width="40" height="40" viewBox="0 0 40 40" fill="none" xmlns="http://www.w3.org/2000/svg">
<path d="M26.3 16.7168C26.4228 16.6023 26.5213 16.4643 26.5896 16.311C26.658 16.1577 26.6947 15.9921 26.6977 15.8243C26.7006 15.6565 26.6697 15.4897 26.6069 15.3341C26.544 15.1785 26.4504 15.0371 26.3317 14.9184C26.213 14.7997 26.0716 14.7061 25.916 14.6432C25.7603 14.5804 25.5936 14.5495 25.4258 14.5524C25.258 14.5554 25.0924 14.5921 24.9391 14.6605C24.7858 14.7288 24.6478 14.8273 24.5333 14.9501L18.75 20.7334L16.3 18.2834C16.063 18.0626 15.7496 17.9424 15.4258 17.9481C15.102 17.9538 14.793 18.085 14.564 18.3141C14.3349 18.5431 14.2038 18.8521 14.198 19.1759C14.1923 19.4997 14.3125 19.8131 14.5333 20.0501L18.75 24.2668L26.3 16.7168Z" fill="#8f63df"/>
<path d="M21.7333 2.59985C20.6063 2.21875 19.3851 2.21934 18.2583 2.60152L6.96501 6.42652C6.13473 6.70303 5.40353 7.21648 4.86156 7.90357C4.31959 8.59066 3.99055 9.42134 3.91501 10.2932C3.32668 17.6432 4.31501 23.4199 6.97834 27.9482C9.65001 32.4899 13.91 35.6115 19.5367 37.8299C19.8312 37.9459 20.1588 37.9459 20.4533 37.8299C26.085 35.6115 30.3467 32.4899 33.02 27.9482C35.6867 23.4199 36.6733 17.6415 36.0867 10.2949C36.011 9.42281 35.6817 8.59198 35.1394 7.90487C34.5972 7.21776 33.8656 6.70443 33.035 6.42819L21.7333 2.59985ZM19.06 4.96985C19.6665 4.76461 20.3236 4.76461 20.93 4.96985L32.2333 8.79485C33.0033 9.05485 33.5333 9.72985 33.595 10.4932C34.1567 17.5365 33.1817 22.7449 30.865 26.6799C28.625 30.4882 25.0383 33.2565 19.995 35.3199C14.9567 33.2565 11.3733 30.4882 9.13334 26.6799C6.81668 22.7465 5.84334 17.5365 6.40501 10.4932C6.44136 10.1079 6.58964 9.74161 6.8316 9.43954C7.07355 9.13747 7.3986 8.91279 7.76668 8.79319L19.06 4.96985Z" fill="#8f63df"/>
</svg>
