<svg width="47" height="42" viewBox="0 0 47 42" fill="none" xmlns="http://www.w3.org/2000/svg">
<path d="M23.7163 6.19166C33.5459 6.19166 41.5143 14.1601 41.5143 23.9896C41.5143 33.8192 33.5459 41.7876 23.7163 41.7876C13.8868 41.7876 5.91833 33.8192 5.91833 23.9896C5.91833 14.1601 13.8868 6.19166 23.7163 6.19166ZM23.7163 36.2431C30.4837 36.2431 35.9697 30.757 35.9697 23.9896C35.9697 17.2222 30.4837 11.7362 23.7163 11.7362C16.9489 11.7362 11.4629 17.2222 11.4629 23.9896C11.4629 30.757 16.9489 36.2431 23.7163 36.2431Z" fill="#F67F72"/>
<circle cx="23.7164" cy="23.9897" r="10.1939" transform="rotate(-90 23.7164 23.9897)" fill="#F67F72"/>
<circle cx="23.7163" cy="23.9899" r="4.32655" transform="rotate(-90 23.7163 23.9899)" fill="#00D1D8" stroke="white" stroke-width="1.78613"/>
<path d="M16.7517 1.42627C18.8511 0.466651 21.4214 0.747 23.7156 2.74072C26.01 0.746512 28.5809 0.467249 30.6804 1.42725C32.9221 2.45234 34.4684 4.82734 34.4685 7.55811C34.4685 10.2334 33.3519 12.2729 31.8992 13.9087C30.477 15.51 28.6624 16.793 27.2644 17.894C26.7607 18.2919 26.2103 18.7229 25.6501 19.0503C25.0902 19.3776 24.4359 19.6527 23.7166 19.6528C22.9968 19.6528 22.3418 19.3775 21.782 19.0503C21.222 18.723 20.672 18.2916 20.1687 17.895H20.1677C18.7706 16.7933 16.9561 15.5099 15.5339 13.9087C14.081 12.2728 12.9646 10.2331 12.9646 7.55713C12.9647 4.82593 14.5099 2.45102 16.7517 1.42627Z" fill="#F53D83" stroke="white" stroke-width="1.78613"/>
</svg>
