<svg width="47" height="40" viewBox="0 0 47 40" fill="none" xmlns="http://www.w3.org/2000/svg">
<path d="M0.321533 13.5977C0.321635 2.29845 13.101 -5.71531 23.5568 5.14944C34.0126 -5.71524 46.792 2.30366 46.792 13.6006L46.7852 14.126C46.5007 25.0852 37.3466 31.0039 30.6153 36.3057C28.2036 38.2109 25.8802 39.9999 23.5568 40V35.791C23.6507 35.791 24.0509 35.7465 24.9288 35.2334C25.8057 34.7209 26.7634 33.9845 28.006 33.0029L28.0109 32.999C31.6785 30.1103 35.2562 27.5987 38.1202 24.374C40.8402 21.3114 42.582 17.9351 42.5821 13.6006C42.5821 9.52715 40.2837 6.23669 37.3448 4.8926C34.6717 3.67021 30.7402 3.75588 26.59 8.06838L23.5568 11.2197L20.5236 8.06838C16.3728 3.75528 12.4406 3.66889 9.76778 4.89065C6.8296 6.23386 4.53055 9.52299 4.5305 13.5977C4.5305 17.9333 6.27292 21.3099 8.99337 24.3731C11.8583 27.5988 15.4356 30.1095 19.1037 33.002L19.9865 33.6924C20.8222 34.3374 21.5259 34.8474 22.1847 35.2324C23.0644 35.7465 23.4641 35.791 23.5568 35.791V40L23.339 39.9951C21.3785 39.9021 19.416 38.5711 17.3986 37.0127L16.4982 36.3076C9.66244 30.917 0.321533 24.897 0.321533 13.5977Z" fill="#FF2993"/>
<path d="M15.7512 26.7295C15.2235 26.6524 14.8357 26.4475 14.5879 26.1148C14.3532 25.7841 14.2745 25.3549 14.3516 24.8271L15.9568 13.8438C16.0359 13.3029 16.0291 12.9402 16.3358 12.6602C16.6425 12.3669 17.0758 12.2202 17.6358 12.2202C18.1025 12.2202 18.4691 12.3135 18.7358 12.5002C19.0158 12.6735 19.2691 12.9669 19.4958 13.3802L23.3731 20.3413L27.2504 13.3802C27.477 12.9669 27.7304 12.6735 28.0104 12.5002C28.277 12.3135 28.6437 12.2202 29.1104 12.2202C29.6704 12.2202 30.1037 12.3669 30.4104 12.6602C30.717 12.9402 30.7103 13.3029 30.7893 13.8438L32.3945 24.8271C32.4717 25.3549 32.3929 25.7841 32.1583 26.1148C31.9105 26.4475 31.5227 26.6524 30.9949 26.7295C30.454 26.8086 30.0238 26.7232 29.7044 26.4735C29.3849 26.2237 29.1866 25.835 29.1094 25.3072L28.1116 18.4798L28.0104 18.1002L24.7704 23.7202C24.597 24.0135 24.4037 24.2335 24.1904 24.3802C23.9776 24.5265 23.7052 24.5998 23.3731 24.6002C23.041 24.5998 22.7685 24.5265 22.5558 24.3802C22.3425 24.2335 22.1491 24.0135 21.9758 23.7202L18.7358 18.1002L18.6346 18.4798L17.6367 25.3072C17.5596 25.835 17.3613 26.2237 17.0418 26.4735C16.7223 26.7232 16.2921 26.8086 15.7512 26.7295Z" fill="#FF2993"/>
</svg>
