<svg xmlns="http://www.w3.org/2000/svg" width="47" height="40" viewBox="0 0 47 40" fill="none" aria-hidden="true">
  <path
    d="M0.321533 13.5977C0.321635 2.29845 13.101 -5.71531 23.5568 5.14944C34.0126 -5.71524 46.792 2.30366 46.792 13.6006L46.7852 14.126C46.5007 25.0852 37.3466 31.0039 30.6153 36.3057C28.2036 38.2109 25.8802 39.9999 23.5568 40V35.791C23.6507 35.791 24.0509 35.7465 24.9288 35.2334C25.8057 34.7209 26.7634 33.9845 28.006 33.0029L28.0109 32.999C31.6785 30.1103 35.2562 27.5987 38.1202 24.374C40.8402 21.3114 42.582 17.9351 42.5821 13.6006C42.5821 9.52715 40.2837 6.23669 37.3448 4.8926C34.6717 3.67021 30.7402 3.75588 26.59 8.06838L23.5568 11.2197L20.5236 8.06838C16.3728 3.75528 12.4406 3.66889 9.76778 4.89065C6.8296 6.23386 4.53055 9.52299 4.5305 13.5977C4.5305 17.9333 6.27292 21.3099 8.99337 24.3731C11.8583 27.5988 15.4356 30.1095 19.1037 33.002L19.9865 33.6924C20.8222 34.3374 21.5259 34.8474 22.1847 35.2324C23.0644 35.7465 23.4641 35.791 23.5568 35.791V40L23.339 39.9951C21.3785 39.9021 19.416 38.5711 17.3986 37.0127L16.4982 36.3076C9.66244 30.917 0.321533 24.897 0.321533 13.5977Z"
    fill="#ffffff"
  />
</svg>
